<svg width="64" height="64" viewBox="0 0 64 64" fill="none" xmlns="http://www.w3.org/2000/svg">
<g id="sprocket-web-color 1">
<path id="Vector" d="M43.0448 24.6612V19.5703C43.7185 19.2555 44.289 18.7558 44.6897 18.1294C45.0904 17.5029 45.3049 16.7754 45.3082 16.0317V15.9127C45.3054 14.8734 44.8914 13.8775 44.1566 13.1426C43.4218 12.4076 42.426 11.9935 41.3869 11.9907H41.2679C40.2287 11.9935 39.233 12.4076 38.4982 13.1426C37.7634 13.8775 37.3493 14.8734 37.3466 15.9127V16.0317C37.3499 16.7754 37.5644 17.5029 37.9651 18.1294C38.3658 18.7558 38.9363 19.2555 39.61 19.5703V24.6717C37.673 24.968 35.8486 25.7708 34.3216 26.999L20.3233 16.0952C20.5897 15.0974 20.5022 14.0381 20.0757 13.0975C19.6492 12.157 18.91 11.3933 17.9839 10.9365C17.0578 10.4797 16.002 10.3579 14.9963 10.592C13.9906 10.8261 13.097 11.4015 12.4677 12.2203C11.8384 13.0391 11.5122 14.0507 11.5446 15.083C11.5771 16.1152 11.9662 17.1044 12.6457 17.882C13.3252 18.6596 14.2532 19.1777 15.2717 19.3481C16.2901 19.5185 17.3361 19.3307 18.2317 18.8165L31.9947 29.5326C30.7551 31.4031 30.1083 33.6041 30.139 35.848C30.1696 38.092 30.8763 40.2745 32.1666 42.1104L27.9782 46.2995C27.642 46.1924 27.2918 46.1354 26.939 46.1303C26.2199 46.1303 25.517 46.3435 24.9191 46.7431C24.3212 47.1427 23.8552 47.7106 23.58 48.375C23.3048 49.0395 23.2328 49.7707 23.3731 50.476C23.5134 51.1814 23.8597 51.8294 24.3681 52.3379C24.8766 52.8465 25.5244 53.1928 26.2297 53.3331C26.935 53.4734 27.666 53.4014 28.3304 53.1262C28.9947 52.851 29.5625 52.3849 29.962 51.7869C30.3615 51.1889 30.5748 50.4858 30.5748 49.7666C30.5698 49.4137 30.5128 49.0635 30.4056 48.7273L34.549 44.5831C35.9015 45.6164 37.4723 46.327 39.1412 46.6605C40.8102 46.9941 42.5333 46.9418 44.179 46.5078C45.8248 46.0737 47.3495 45.2693 48.637 44.156C49.9245 43.0426 50.9406 41.6498 51.6078 40.0838C52.275 38.5178 52.5757 36.82 52.4868 35.1201C52.3979 33.4202 51.9219 31.763 51.095 30.2752C50.2682 28.7873 49.1123 27.5081 47.7158 26.5351C46.3192 25.5621 44.7189 24.9212 43.0369 24.6612H43.0448ZM41.3208 41.4334C40.1874 41.4308 39.0803 41.0922 38.1392 40.4605C37.1982 39.8288 36.4655 38.9323 36.0337 37.8842C35.6019 36.8362 35.4905 35.6836 35.7134 34.5722C35.9362 33.4608 36.4835 32.4404 37.286 31.64C38.0885 30.8396 39.1103 30.295 40.2221 30.0752C41.3339 29.8553 42.486 29.97 43.5326 30.4048C44.5793 30.8395 45.4737 31.5748 46.1027 32.5178C46.7317 33.4607 47.0671 34.5689 47.0666 35.7025C47.0666 37.2231 46.4626 38.6815 45.3876 39.7567C44.3125 40.832 42.8544 41.436 41.334 41.436" fill="#FF7A59"/>
</g>
</svg>
