<svg width="40" height="40" viewBox="0 0 40 40" fill="none" xmlns="http://www.w3.org/2000/svg">
<g id="Frame" clip-path="url(#clip0_2626_687)">
<path id="Vector" d="M14.6013 0.0986938C12.402 0.0986938 10.6193 1.88536 10.6193 4.08869C10.6188 4.61214 10.7214 5.13057 10.9212 5.61437C11.121 6.09818 11.4142 6.53789 11.784 6.90839C12.1537 7.2789 12.5929 7.57295 13.0763 7.77375C13.5597 7.97455 14.0779 8.07817 14.6013 8.07869H18.584V4.08869C18.5849 3.03148 18.1658 2.0172 17.4189 1.26895C16.672 0.520703 15.6585 0.0997542 14.6013 0.0986938ZM14.6013 10.7387H3.982C1.78267 10.7387 0 12.5254 0 14.7294C0 16.9327 1.78267 18.7194 3.982 18.7194H14.602C16.8007 18.7194 18.584 16.9327 18.584 14.7294C18.584 12.5254 16.8007 10.7387 14.6013 10.7387Z" fill="#36C5F0"/>
<path id="Vector_2" d="M39.8228 14.7293C39.8228 12.5253 38.0394 10.7386 35.8401 10.7386C33.6408 10.7386 31.8581 12.5253 31.8581 14.7293V18.7193H35.8401C36.8973 18.7182 37.9108 18.2973 38.6577 17.549C39.4046 16.8008 39.8237 15.7865 39.8228 14.7293ZM29.2034 14.7293V4.08863C29.2043 3.03142 28.7852 2.01714 28.0384 1.26889C27.2915 0.520641 26.278 0.0996932 25.2208 0.0986328C23.0214 0.0986328 21.2388 1.8853 21.2388 4.08863V14.7286C21.2388 16.9333 23.0214 18.72 25.2208 18.72C26.278 18.7189 27.2915 18.298 28.0384 17.5497C28.7852 16.8015 29.2043 15.7872 29.2034 14.73" fill="#2EB67D"/>
<path id="Vector_3" d="M25.2208 40.0001C26.278 39.999 27.2915 39.578 28.0384 38.8298C28.7852 38.0815 29.2043 37.0673 29.2034 36.0101C29.2043 34.9528 28.7852 33.9386 28.0384 33.1903C27.2915 32.4421 26.278 32.0211 25.2208 32.0201H21.2388V36.0101C21.2388 38.2134 23.0214 40.0001 25.2208 40.0001ZM25.2208 29.3601H35.8408C38.0394 29.3601 39.8228 27.5734 39.8228 25.3694C39.8237 24.3122 39.4046 23.2979 38.6577 22.5497C37.9108 21.8014 36.8973 21.3805 35.8401 21.3794H25.2208C23.0214 21.3794 21.2388 23.1661 21.2388 25.3694C21.2382 25.8928 21.3408 26.4113 21.5407 26.8951C21.7405 27.3789 22.0337 27.8186 22.4034 28.1891C22.7732 28.5596 23.2123 28.8536 23.6957 29.0544C24.1791 29.2552 24.6973 29.3589 25.2208 29.3594" fill="#ECB22E"/>
<path id="Vector_4" d="M2.00922e-06 25.3693C-0.000523542 25.8928 0.102057 26.4112 0.301887 26.895C0.501717 27.3788 0.794882 27.8185 1.16465 28.189C1.53441 28.5595 1.97353 28.8536 2.45693 29.0544C2.94033 29.2552 3.45855 29.3588 3.982 29.3593C5.03922 29.3583 6.05272 28.9373 6.79959 28.1891C7.54647 27.4408 7.96555 26.4265 7.96467 25.3693V21.3793H3.982C1.78267 21.3793 2.00922e-06 23.166 2.00922e-06 25.3693ZM10.6193 25.3693V36.0093C10.6193 38.2133 12.402 40 14.6013 40C15.6585 39.9989 16.6721 39.578 17.4189 38.8297C18.1658 38.0815 18.5849 37.0672 18.584 36.01V25.3693C18.5845 24.8458 18.4819 24.3273 18.2821 23.8435C18.0822 23.3596 17.789 22.9199 17.4191 22.5494C17.0493 22.1789 16.6101 21.8849 16.1266 21.6841C15.6431 21.4833 15.1248 21.3798 14.6013 21.3793C12.402 21.3793 10.6193 23.166 10.6193 25.3693Z" fill="#E01E5A"/>
</g>
<defs>
<clipPath id="clip0_2626_687">
<rect width="40" height="40" fill="white"/>
</clipPath>
</defs>
</svg>
