<svg width="35" height="40" viewBox="0 0 35 40" fill="none" xmlns="http://www.w3.org/2000/svg">
<g id="Frame" clip-path="url(#clip0_2626_710)">
<g id="Page 1">
<g id="google analytics">
<g id="Group">
<path id="Shape" d="M24.8156 5.19575V34.3624C24.8156 37.626 27.0672 39.4445 29.4558 39.4445C31.6654 39.4445 34.0959 37.8978 34.0959 34.3624V5.41671C34.0959 2.42492 31.8863 0.555603 29.4558 0.555603C27.0252 0.555603 24.8156 2.61716 24.8156 5.19575Z" fill="#F9AB00"/>
<path id="Shape_2" d="M12.6629 20V34.3624C12.6629 37.626 14.9144 39.4445 17.303 39.4445C19.5126 39.4445 21.9432 37.8977 21.9432 34.3624V20.221C21.9432 17.2292 19.7336 15.3599 17.303 15.3599C14.8725 15.3599 12.6629 17.4214 12.6629 20Z" fill="#E37400"/>
<path id="Oval" d="M5.15024 39.4445C7.71292 39.4445 9.79039 37.367 9.79039 34.8043C9.79039 32.2417 7.71292 30.1642 5.15024 30.1642C2.58755 30.1642 0.510086 32.2417 0.510086 34.8043C0.510086 37.367 2.58755 39.4445 5.15024 39.4445Z" fill="#E37400"/>
</g>
</g>
</g>
</g>
<defs>
<clipPath id="clip0_2626_710">
<rect width="33.9394" height="40" fill="white" transform="translate(0.333328)"/>
</clipPath>
</defs>
</svg>
