<svg width="40" height="40" viewBox="0 0 40 40" fill="none" xmlns="http://www.w3.org/2000/svg">
<g id="Frame">
<g id="Group">
<g id="Group_2">
<path id="Vector" d="M11.9186 26.442C11.9407 26.4687 11.9542 26.5015 11.9573 26.5361C11.9604 26.5706 11.9529 26.6053 11.9359 26.6356C11.8532 26.7698 11.7347 26.8782 11.5937 26.9486C11.4527 27.0191 11.2948 27.0487 11.1378 27.0342C10.8581 27.0041 10.6003 26.8689 10.4164 26.656C10.2326 26.443 10.1364 26.1682 10.1474 25.8871C10.1426 25.504 10.2126 25.1236 10.3533 24.7673C10.4421 24.544 10.4514 24.2969 10.3795 24.0676C10.3077 23.8383 10.1591 23.6407 9.95873 23.508C9.84015 23.4295 9.70705 23.3756 9.56729 23.3495C9.42753 23.3233 9.28394 23.3254 9.145 23.3556C9.00888 23.3843 8.87986 23.4398 8.76553 23.5191C8.6512 23.5983 8.55387 23.6996 8.47926 23.817C8.37373 23.9977 8.29167 24.1911 8.23509 24.3925C8.22417 24.428 8.21536 24.4558 8.20868 24.4738C8.11597 24.7239 7.96815 24.7968 7.868 24.7834C7.82065 24.7769 7.75555 24.7452 7.71382 24.6307C7.66144 24.2998 7.68521 23.9613 7.78332 23.641C7.88143 23.3207 8.0513 23.0269 8.28001 22.7821C8.47209 22.5758 8.7105 22.4183 8.97555 22.3224C9.24059 22.2266 9.52464 22.1952 9.80421 22.2309C10.1004 22.2716 10.3818 22.3851 10.6234 22.5613C10.8649 22.7375 11.059 22.9708 11.1882 23.2404C11.3191 23.5717 11.3719 23.9288 11.3426 24.2838C11.3132 24.6388 11.2025 24.9823 11.019 25.2877C10.9958 25.3396 10.9745 25.3872 10.9566 25.4303C10.8906 25.5496 10.8544 25.683 10.851 25.8193C10.8476 25.9555 10.8771 26.0906 10.9371 26.213C10.9877 26.286 11.0557 26.3453 11.1349 26.3856C11.2141 26.4258 11.3021 26.4458 11.3909 26.4438C11.4747 26.4426 11.558 26.4308 11.6388 26.4087C11.7439 26.3841 11.8526 26.3588 11.9186 26.4419L11.9186 26.442ZM37.8423 27.0892C37.7835 28.2963 37.5285 29.4858 37.0872 30.6109C34.8857 35.9024 29.6319 38.8482 23.3731 38.6617C17.5385 38.4879 12.5622 35.3996 10.3842 30.3654C9.0093 30.327 7.69396 29.7957 6.67796 28.8686C5.62841 27.9738 4.95407 26.7168 4.78907 25.3475C4.68257 24.4055 4.79907 23.4516 5.12918 22.5629L3.90603 21.5236C-1.69062 16.7836 15.8142 -2.73268 21.413 2.16558C21.4413 2.19024 23.3175 4.03692 23.3223 4.04147C23.3297 4.03767 24.3575 3.60051 24.3627 3.59837C29.2733 1.5587 33.258 2.54353 33.263 5.79789C33.2656 7.49036 32.1904 9.46306 30.4682 11.2537C31.1565 11.9543 31.6438 12.827 31.8792 13.7805C32.0691 14.4457 32.1717 15.1327 32.1845 15.8244C32.2144 16.5141 32.2475 18.1209 32.2508 18.1495C32.2945 18.1627 32.7917 18.2996 32.9424 18.342C33.9443 18.5618 34.8766 19.025 35.6569 19.6907C36.0689 20.0934 36.3387 20.6192 36.4256 21.1888C36.5318 21.9277 36.3474 22.6791 35.9111 23.2849C36.0246 23.5438 36.1231 23.809 36.2061 24.0792C36.3511 24.5452 36.4565 24.932 36.4728 24.9894C37.0055 24.9894 37.8423 25.6046 37.8423 27.0892L37.8423 27.0892ZM13.1093 24.1855C12.7287 21.7146 11.0623 20.8438 9.93155 20.7817C9.64772 20.7666 9.36312 20.7869 9.08431 20.8421C7.06614 21.2505 5.92633 22.9725 6.15061 25.2101C6.31396 26.2138 6.81096 27.133 7.56131 27.8193C8.31166 28.5056 9.27151 28.9189 10.2857 28.9923C10.4798 28.9975 10.674 28.9838 10.8654 28.9515C12.9109 28.6016 13.4465 26.3738 13.1093 24.1855ZM16.5588 8.50029C18.2683 7.09483 20.092 5.8342 22.0108 4.73146C22.0108 4.73146 20.4872 2.95952 20.0271 2.82893C17.1972 2.06162 11.084 6.29043 7.18087 11.8773C5.60157 14.1379 3.34075 18.1411 4.42169 20.1999C4.8057 20.6621 5.23887 21.081 5.71357 21.4493C6.43624 20.4307 7.52668 19.7329 8.7544 19.5036C10.2904 15.1858 12.9916 11.3774 16.5588 8.50029ZM22.7093 28.0536C22.7843 28.382 22.9466 28.684 23.1791 28.9278C23.4116 29.1715 23.7056 29.348 24.03 29.4385C24.3675 29.5642 24.7158 29.6591 25.0705 29.7219C29.5469 30.4942 33.7318 27.927 34.6741 27.2804C34.7448 27.2318 34.7915 27.2791 34.7348 27.3648C34.7064 27.4105 34.6756 27.4545 34.6425 27.4968C33.4893 28.9888 30.3892 30.7166 26.3557 30.716C24.5966 30.7157 22.8384 30.094 22.1928 29.1389C21.1912 27.6568 22.1432 25.4935 23.8121 25.7189C23.814 25.7192 24.3831 25.7839 24.5431 25.8017C27.1373 26.0512 29.7521 25.6315 32.1379 24.5827C34.4148 23.5225 35.275 22.3558 35.146 21.4113C35.1028 21.118 34.9649 20.8468 34.7534 20.6391C34.1307 20.1266 33.3914 19.7753 32.6008 19.6164C32.2391 19.5146 31.9937 19.4496 31.7294 19.3622C31.2594 19.2069 31.0271 19.082 30.9744 18.1955C30.9515 17.8078 30.8841 16.4572 30.8597 15.899C30.8167 14.921 30.6996 13.5843 29.8725 13.0323C29.662 12.8938 29.4175 12.8154 29.1657 12.8057C29.0244 12.7971 28.8828 12.811 28.7459 12.8469C28.327 12.9439 27.9452 13.1604 27.6469 13.4701C27.2604 13.8194 26.8059 14.0852 26.3119 14.2506C25.8179 14.416 25.295 14.4775 24.776 14.4313C24.1974 14.4071 23.5842 14.3167 22.8813 14.2749C22.7445 14.2668 22.6072 14.2583 22.4702 14.2513C21.5651 14.275 20.6986 14.623 20.0286 15.2319C19.3585 15.8407 18.9294 16.67 18.8193 17.5686C18.4168 20.3461 20.4221 21.7813 21.001 22.6235C21.0905 22.7308 21.1459 22.8622 21.1604 23.0012C21.1451 23.1552 21.0713 23.2976 20.9543 23.3989V23.3998C20.1535 24.2919 19.5907 25.3716 19.3179 26.539C19.0452 27.7063 19.0713 28.9236 19.3938 30.0782C19.4703 30.3555 19.5684 30.6263 19.6871 30.8883C21.1504 34.318 25.6894 35.915 30.124 34.4623C30.7046 34.2722 31.2682 34.0335 31.8087 33.7487C32.7798 33.2673 33.6543 32.6118 34.3887 31.8147C35.5308 30.6669 36.2823 29.1885 36.5366 27.5894C36.6701 26.7053 36.4747 26.3634 36.2082 26.1989C36.0199 26.0939 35.8021 26.054 35.5888 26.0853C35.4758 25.3911 35.2777 24.7135 34.9989 24.0677C33.7324 25.0234 32.3007 25.7376 30.7755 26.1747C28.9403 26.6932 27.0313 26.9002 25.1277 26.7872C23.903 26.688 23.0928 26.3294 22.7881 27.3227C24.6406 27.9422 26.6074 28.1429 28.5468 27.9103C28.5605 27.9089 28.5743 27.9102 28.5874 27.9141C28.6005 27.9181 28.6128 27.9246 28.6234 27.9333C28.634 27.942 28.6428 27.9526 28.6493 27.9647C28.6557 27.9768 28.6598 27.9901 28.6611 28.0037C28.6631 28.0267 28.658 28.0497 28.6464 28.0696C28.6349 28.0895 28.6174 28.1053 28.5964 28.1149C28.5964 28.1149 26.3218 29.1742 22.7093 28.0536ZM16.0475 11.9473C17.552 10.8911 19.2484 10.139 21.0414 9.73338C23.064 9.26466 25.1664 9.25899 27.1915 9.71679C27.2624 9.73307 27.3076 9.60993 27.2442 9.57433C26.1933 9.02716 25.0332 8.72217 23.8491 8.68174C23.8377 8.68154 23.8266 8.67819 23.817 8.67207C23.8074 8.66594 23.7996 8.65728 23.7946 8.64704C23.7896 8.63679 23.7875 8.62536 23.7885 8.614C23.7896 8.60264 23.7938 8.59179 23.8006 8.58265C23.9845 8.34122 24.1994 8.12501 24.4396 7.93955C24.4504 7.93115 24.4582 7.91953 24.4619 7.90639C24.4656 7.89324 24.465 7.87926 24.4602 7.86648C24.4554 7.85369 24.4467 7.84276 24.4352 7.83529C24.4238 7.82782 24.4103 7.82419 24.3967 7.82493C22.9466 7.96829 21.5531 8.46177 20.3361 9.26293C20.3257 9.26998 20.3134 9.27373 20.3008 9.2737C20.2883 9.27367 20.276 9.26986 20.2656 9.26276C20.2553 9.25567 20.2473 9.24562 20.2427 9.23392C20.2381 9.22222 20.2372 9.20942 20.24 9.19718C20.338 8.82978 20.4824 8.47634 20.6696 8.14538C20.6758 8.13406 20.6782 8.12105 20.6765 8.10825C20.6748 8.09546 20.669 8.08356 20.66 8.07431C20.6509 8.06506 20.6392 8.05894 20.6265 8.05685C20.6137 8.05477 20.6007 8.05683 20.5892 8.06273C18.829 9.03427 17.2613 10.3194 15.9633 11.8547C15.9531 11.8663 15.9476 11.8813 15.9477 11.8968C15.9479 11.9122 15.9537 11.9271 15.9641 11.9385C15.9745 11.95 15.9888 11.9572 16.0041 11.9588C16.0195 11.9604 16.0349 11.9564 16.0475 11.9473ZM27.8356 21.3753C27.9581 21.4529 28.1049 21.4826 28.2479 21.4589C28.391 21.4351 28.5203 21.3595 28.6111 21.2464C28.724 21.0279 28.5601 20.7315 28.2448 20.5843C28.1222 20.5067 27.9754 20.477 27.8324 20.5009C27.6893 20.5247 27.5601 20.6004 27.4693 20.7135C27.3562 20.9318 27.5203 21.2282 27.8356 21.3753ZM28.8027 17.8315C28.8783 18.225 29.0415 18.5964 29.2802 18.9182C29.5268 18.8879 29.7761 18.8879 30.0227 18.9182C30.1669 18.4863 30.1795 18.0213 30.059 17.5822C29.8808 16.7721 29.6396 16.2818 29.1412 16.358C28.643 16.4344 28.6246 17.0213 28.8027 17.8315ZM29.8629 19.6925C29.7372 19.6565 29.6034 19.6607 29.4802 19.7046C29.3571 19.7485 29.2508 19.8299 29.1762 19.9373C29.1017 20.0448 29.0627 20.1729 29.0648 20.3036C29.0668 20.4344 29.1097 20.5612 29.1875 20.6663C29.2653 20.7713 29.3741 20.8494 29.4986 20.8895C29.623 20.9295 29.7569 20.9296 29.8814 20.8897C30.006 20.8497 30.1148 20.7718 30.1927 20.6668C30.2707 20.5618 30.3137 20.435 30.3159 20.3043C30.334 20.1636 30.2969 20.0213 30.2125 19.9073C30.128 19.7932 30.0028 19.7163 29.8629 19.6925Z" fill="black"/>
</g>
<g id="Group_3">
<path id="Vector_2" d="M21.589 19.6202C21.5095 19.609 21.4756 19.575 21.4656 19.5299C21.4347 19.3902 21.6497 19.1602 21.8763 18.9941C22.207 18.7524 22.5943 18.5997 23.001 18.5509C23.4077 18.5021 23.8202 18.5587 24.1987 18.7153C24.5524 18.8612 24.8565 19.106 25.0746 19.4203C25.1556 19.5525 25.1713 19.655 25.1189 19.7087C25.0373 19.7947 24.8292 19.6961 24.4905 19.5476C24.0835 19.3479 23.6338 19.251 23.1808 19.2655C22.6439 19.3538 22.1125 19.4722 21.589 19.6202ZM24.9654 20.3153C24.8191 20.1615 24.6368 20.0463 24.435 19.9801C24.2332 19.914 24.0181 19.8989 23.8091 19.9363C23.5008 19.9691 23.2087 20.0908 22.9683 20.2867C22.8563 20.3671 22.7794 20.4873 22.7532 20.6226C22.7526 20.6377 22.7553 20.6527 22.7612 20.6666C22.767 20.6805 22.7758 20.6929 22.787 20.703C22.8068 20.7211 22.8328 20.7309 22.8596 20.7306C22.9705 20.7143 23.0789 20.6843 23.1824 20.6411C23.6353 20.4704 24.1246 20.4196 24.6029 20.4936C24.8246 20.5185 24.9293 20.5324 24.978 20.4563C24.9904 20.4343 24.9959 20.409 24.9937 20.3839C24.9914 20.3587 24.9816 20.3348 24.9654 20.3153Z" fill="black"/>
</g>
</g>
</g>
</svg>
